<svg width="20" height="20" viewBox="0 0 20 20" fill="none" xmlns="http://www.w3.org/2000/svg">
<path d="M10.8334 15H2.50008C2.27907 15 2.06711 15.0878 1.91083 15.2441C1.75455 15.4004 1.66675 15.6123 1.66675 15.8333C1.66675 16.0543 1.75455 16.2663 1.91083 16.4226C2.06711 16.5789 2.27907 16.6667 2.50008 16.6667H10.8334C11.0544 16.6667 11.2664 16.5789 11.4227 16.4226C11.579 16.2663 11.6667 16.0543 11.6667 15.8333C11.6667 15.6123 11.579 15.4004 11.4227 15.2441C11.2664 15.0878 11.0544 15 10.8334 15ZM2.50008 6.66667H9.16675C9.38776 6.66667 9.59972 6.57887 9.756 6.42259C9.91228 6.26631 10.0001 6.05435 10.0001 5.83333C10.0001 5.61232 9.91228 5.40036 9.756 5.24408C9.59972 5.0878 9.38776 5 9.16675 5H2.50008C2.27907 5 2.06711 5.0878 1.91083 5.24408C1.75455 5.40036 1.66675 5.61232 1.66675 5.83333C1.66675 6.05435 1.75455 6.26631 1.91083 6.42259C2.06711 6.57887 2.27907 6.66667 2.50008 6.66667ZM2.50008 10H9.16675C9.38776 10 9.59972 9.9122 9.756 9.75592C9.91228 9.59964 10.0001 9.38768 10.0001 9.16667C10.0001 8.94565 9.91228 8.73369 9.756 8.57741C9.59972 8.42113 9.38776 8.33333 9.16675 8.33333H2.50008C2.27907 8.33333 2.06711 8.42113 1.91083 8.57741C1.75455 8.73369 1.66675 8.94565 1.66675 9.16667C1.66675 9.38768 1.75455 9.59964 1.91083 9.75592C2.06711 9.9122 2.27907 10 2.50008 10ZM17.5001 11.6667H2.50008C2.27907 11.6667 2.06711 11.7545 1.91083 11.9107C1.75455 12.067 1.66675 12.279 1.66675 12.5C1.66675 12.721 1.75455 12.933 1.91083 13.0893C2.06711 13.2455 2.27907 13.3333 2.50008 13.3333H17.5001C17.7211 13.3333 17.9331 13.2455 18.0893 13.0893C18.2456 12.933 18.3334 12.721 18.3334 12.5C18.3334 12.279 18.2456 12.067 18.0893 11.9107C17.9331 11.7545 17.7211 11.6667 17.5001 11.6667ZM17.5001 3.33333H12.5001C12.2791 3.33333 12.0671 3.42113 11.9108 3.57741C11.7545 3.73369 11.6667 3.94565 11.6667 4.16667V9.16667C11.6667 9.38768 11.7545 9.59964 11.9108 9.75592C12.0671 9.9122 12.2791 10 12.5001 10H17.5001C17.7211 10 17.9331 9.9122 18.0893 9.75592C18.2456 9.59964 18.3334 9.38768 18.3334 9.16667V4.16667C18.3334 3.94565 18.2456 3.73369 18.0893 3.57741C17.9331 3.42113 17.7211 3.33333 17.5001 3.33333ZM16.6667 8.33333H13.3334V5H16.6667V8.33333Z" fill="#477DB3"/>
</svg>
