<svg width="20" height="20" viewBox="0 0 20 20" fill="none" xmlns="http://www.w3.org/2000/svg">
<path d="M6.66667 15.8333C6.00363 15.8333 5.36774 15.5699 4.8989 15.1011C4.43006 14.6323 4.16667 13.9964 4.16667 13.3333V6.66667C4.16667 6.00363 4.43006 5.36774 4.8989 4.8989C5.36774 4.43006 6.00363 4.16667 6.66667 4.16667C6.88768 4.16667 7.09964 4.07887 7.25592 3.92259C7.4122 3.76631 7.5 3.55435 7.5 3.33333C7.5 3.11232 7.4122 2.90036 7.25592 2.74408C7.09964 2.5878 6.88768 2.5 6.66667 2.5C5.5616 2.5 4.50179 2.93899 3.72039 3.72039C2.93899 4.50179 2.5 5.5616 2.5 6.66667V13.3333C2.5 14.4384 2.93899 15.4982 3.72039 16.2796C4.50179 17.061 5.5616 17.5 6.66667 17.5C6.88768 17.5 7.09964 17.4122 7.25592 17.2559C7.4122 17.0996 7.5 16.8877 7.5 16.6667C7.5 16.4457 7.4122 16.2337 7.25592 16.0774C7.09964 15.9211 6.88768 15.8333 6.66667 15.8333ZM13.0917 13.0917C13.1698 13.0142 13.2318 12.922 13.2741 12.8205C13.3164 12.7189 13.3382 12.61 13.3382 12.5C13.3382 12.39 13.3164 12.2811 13.2741 12.1795C13.2318 12.078 13.1698 11.9858 13.0917 11.9083L11.175 10L13.0917 8.09167C13.2486 7.93475 13.3367 7.72192 13.3367 7.5C13.3367 7.27808 13.2486 7.06525 13.0917 6.90833C12.9347 6.75141 12.7219 6.66326 12.5 6.66326C12.2781 6.66326 12.0653 6.75141 11.9083 6.90833L10 8.825L8.09167 6.90833C7.93475 6.75141 7.72192 6.66326 7.5 6.66326C7.27808 6.66326 7.06525 6.75141 6.90833 6.90833C6.75141 7.06525 6.66326 7.27808 6.66326 7.5C6.66326 7.72192 6.75141 7.93475 6.90833 8.09167L8.825 10L6.90833 11.9083C6.83023 11.9858 6.76823 12.078 6.72592 12.1795C6.68362 12.2811 6.66183 12.39 6.66183 12.5C6.66183 12.61 6.68362 12.7189 6.72592 12.8205C6.76823 12.922 6.83023 13.0142 6.90833 13.0917C6.9858 13.1698 7.07797 13.2318 7.17952 13.2741C7.28107 13.3164 7.38999 13.3382 7.5 13.3382C7.61001 13.3382 7.71893 13.3164 7.82048 13.2741C7.92203 13.2318 8.0142 13.1698 8.09167 13.0917L10 11.175L11.9083 13.0917C11.9858 13.1698 12.078 13.2318 12.1795 13.2741C12.2811 13.3164 12.39 13.3382 12.5 13.3382C12.61 13.3382 12.7189 13.3164 12.8205 13.2741C12.922 13.2318 13.0142 13.1698 13.0917 13.0917ZM13.3333 2.5C13.1123 2.5 12.9004 2.5878 12.7441 2.74408C12.5878 2.90036 12.5 3.11232 12.5 3.33333C12.5 3.55435 12.5878 3.76631 12.7441 3.92259C12.9004 4.07887 13.1123 4.16667 13.3333 4.16667C13.9964 4.16667 14.6323 4.43006 15.1011 4.8989C15.5699 5.36774 15.8333 6.00363 15.8333 6.66667V13.3333C15.8333 13.9964 15.5699 14.6323 15.1011 15.1011C14.6323 15.5699 13.9964 15.8333 13.3333 15.8333C13.1123 15.8333 12.9004 15.9211 12.7441 16.0774C12.5878 16.2337 12.5 16.4457 12.5 16.6667C12.5 16.8877 12.5878 17.0996 12.7441 17.2559C12.9004 17.4122 13.1123 17.5 13.3333 17.5C14.4384 17.5 15.4982 17.061 16.2796 16.2796C17.061 15.4982 17.5 14.4384 17.5 13.3333V6.66667C17.5 5.5616 17.061 4.50179 16.2796 3.72039C15.4982 2.93899 14.4384 2.5 13.3333 2.5Z" fill="#477DB3"/>
</svg>
