<svg width="20" height="20" viewBox="0 0 20 20" fill="none" xmlns="http://www.w3.org/2000/svg">
<path d="M16.5916 12.925H12.8166C12.5956 12.925 12.3837 13.0128 12.2274 13.1691C12.0711 13.3254 11.9833 13.5373 11.9833 13.7583C11.9833 13.9793 12.0711 14.1913 12.2274 14.3476C12.3837 14.5039 12.5956 14.5917 12.8166 14.5917H14.8166C13.8974 15.5523 12.712 16.2161 11.4126 16.4978C10.1132 16.7796 8.7593 16.6663 7.52477 16.1727C6.29025 15.6791 5.23152 14.8276 4.48462 13.7276C3.73772 12.6277 3.33677 11.3296 3.33329 10C3.33329 9.77898 3.2455 9.56702 3.08922 9.41074C2.93293 9.25446 2.72097 9.16666 2.49996 9.16666C2.27895 9.16666 2.06698 9.25446 1.9107 9.41074C1.75442 9.56702 1.66663 9.77898 1.66663 10C1.67103 11.6273 2.15181 13.2178 3.04963 14.575C3.94745 15.9323 5.22301 16.997 6.71891 17.6377C8.21481 18.2784 9.86557 18.4671 11.4675 18.1805C13.0694 17.8939 14.5523 17.1446 15.7333 16.025V17.5C15.7333 17.721 15.8211 17.933 15.9774 18.0893C16.1337 18.2455 16.3456 18.3333 16.5666 18.3333C16.7876 18.3333 16.9996 18.2455 17.1559 18.0893C17.3122 17.933 17.4 17.721 17.4 17.5V13.75C17.3979 13.5347 17.3126 13.3285 17.1619 13.1747C17.0112 13.0209 16.8068 12.9314 16.5916 12.925ZM12.5 10C12.5 9.50554 12.3533 9.02219 12.0786 8.61107C11.8039 8.19995 11.4135 7.87952 10.9567 7.6903C10.4999 7.50108 9.99719 7.45157 9.51223 7.54803C9.02728 7.6445 8.58182 7.8826 8.23219 8.23223C7.88256 8.58186 7.64446 9.02732 7.548 9.51227C7.45153 9.99722 7.50104 10.4999 7.69026 10.9567C7.87948 11.4135 8.19991 11.804 8.61103 12.0787C9.02216 12.3534 9.50551 12.5 9.99996 12.5C10.663 12.5 11.2989 12.2366 11.7677 11.7678C12.2366 11.2989 12.5 10.663 12.5 10ZM9.16663 10C9.16663 9.83518 9.2155 9.67406 9.30707 9.53702C9.39864 9.39998 9.52878 9.29317 9.68106 9.2301C9.83333 9.16703 10.0009 9.15052 10.1625 9.18268C10.3242 9.21483 10.4727 9.2942 10.5892 9.41074C10.7058 9.52729 10.7851 9.67577 10.8173 9.83742C10.8494 9.99907 10.8329 10.1666 10.7699 10.3189C10.7068 10.4712 10.6 10.6013 10.4629 10.6929C10.3259 10.7845 10.1648 10.8333 9.99996 10.8333C9.77895 10.8333 9.56698 10.7455 9.4107 10.5893C9.25442 10.433 9.16663 10.221 9.16663 10ZM9.99996 1.66666C7.86361 1.67276 5.8112 2.49909 4.26663 3.975V2.5C4.26663 2.27898 4.17883 2.06702 4.02255 1.91074C3.86627 1.75446 3.65431 1.66666 3.43329 1.66666C3.21228 1.66666 3.00032 1.75446 2.84404 1.91074C2.68776 2.06702 2.59996 2.27898 2.59996 2.5V6.25C2.59996 6.47101 2.68776 6.68297 2.84404 6.83925C3.00032 6.99553 3.21228 7.08333 3.43329 7.08333H7.18329C7.40431 7.08333 7.61627 6.99553 7.77255 6.83925C7.92883 6.68297 8.01663 6.47101 8.01663 6.25C8.01663 6.02898 7.92883 5.81702 7.77255 5.66074C7.61627 5.50446 7.40431 5.41666 7.18329 5.41666H5.18329C6.10201 4.45656 7.2867 3.79291 8.58529 3.51092C9.88388 3.22893 11.2371 3.34145 12.4713 3.83405C13.7055 4.32665 14.7643 5.17684 15.5118 6.2755C16.2594 7.37416 16.6615 8.67115 16.6666 10C16.6666 10.221 16.7544 10.433 16.9107 10.5893C17.067 10.7455 17.2789 10.8333 17.5 10.8333C17.721 10.8333 17.9329 10.7455 18.0892 10.5893C18.2455 10.433 18.3333 10.221 18.3333 10C18.3333 8.90565 18.1177 7.82202 17.699 6.81097C17.2802 5.79992 16.6663 4.88126 15.8925 4.10744C15.1187 3.33362 14.2 2.71979 13.189 2.301C12.1779 1.88221 11.0943 1.66666 9.99996 1.66666Z" fill="#477DB3"/>
</svg>
