<svg width="20" height="20" viewBox="0 0 20 20" fill="none" xmlns="http://www.w3.org/2000/svg">
<path d="M17.5001 9.16667C17.2791 9.16667 17.0671 9.25446 16.9108 9.41075C16.7545 9.56703 16.6668 9.77899 16.6668 10C16.6767 11.5609 16.142 13.0763 15.1548 14.2854C14.1676 15.4944 12.7897 16.3214 11.2584 16.6238C9.72708 16.9263 8.13823 16.6853 6.7655 15.9423C5.39277 15.1994 4.32209 14.001 3.73785 12.5535C3.15362 11.1061 3.09241 9.50026 3.56477 8.01256C4.03712 6.52486 5.01348 5.24845 6.32567 4.40315C7.63786 3.55785 9.20375 3.19659 10.7536 3.38159C12.3035 3.56659 13.7404 4.28627 14.8168 5.41667H12.8168C12.5957 5.41667 12.3838 5.50446 12.2275 5.66074C12.0712 5.81703 11.9834 6.02899 11.9834 6.25C11.9834 6.47101 12.0712 6.68298 12.2275 6.83926C12.3838 6.99554 12.5957 7.08333 12.8168 7.08333H16.5918C16.8128 7.08333 17.0247 6.99554 17.181 6.83926C17.3373 6.68298 17.4251 6.47101 17.4251 6.25V2.5C17.4251 2.27899 17.3373 2.06703 17.181 1.91075C17.0247 1.75447 16.8128 1.66667 16.5918 1.66667C16.3707 1.66667 16.1588 1.75447 16.0025 1.91075C15.8462 2.06703 15.7584 2.27899 15.7584 2.5V3.975C14.3706 2.64838 12.5674 1.84163 10.6534 1.69111C8.73949 1.54059 6.83227 2.05554 5.25418 3.14891C3.67609 4.24228 2.52392 5.84701 1.99244 7.69183C1.46096 9.53664 1.58276 11.5084 2.33726 13.2738C3.09176 15.0392 4.43267 16.4899 6.13333 17.3807C7.83399 18.2715 9.79008 18.5478 11.6709 18.1629C13.5518 17.778 15.2421 16.7554 16.456 15.2681C17.67 13.7807 18.3331 11.9199 18.3334 10C18.3334 9.77899 18.2456 9.56703 18.0893 9.41075C17.9331 9.25446 17.7211 9.16667 17.5001 9.16667Z" fill="#477DB3"/>
</svg>
