<svg width="20" height="20" viewBox="0 0 20 20" fill="none" xmlns="http://www.w3.org/2000/svg">
<path d="M15.8333 3.33333H14.1666V2.5C14.1666 2.27898 14.0788 2.06702 13.9225 1.91074C13.7663 1.75446 13.5543 1.66666 13.3333 1.66666C13.1123 1.66666 12.9003 1.75446 12.744 1.91074C12.5878 2.06702 12.5 2.27898 12.5 2.5V3.33333H7.49996V2.5C7.49996 2.27898 7.41216 2.06702 7.25588 1.91074C7.0996 1.75446 6.88764 1.66666 6.66663 1.66666C6.44561 1.66666 6.23365 1.75446 6.07737 1.91074C5.92109 2.06702 5.83329 2.27898 5.83329 2.5V3.33333H4.16663C3.50358 3.33333 2.8677 3.59672 2.39886 4.06556C1.93002 4.53441 1.66663 5.17029 1.66663 5.83333V15.8333C1.66663 16.4964 1.93002 17.1323 2.39886 17.6011C2.8677 18.0699 3.50358 18.3333 4.16663 18.3333H15.8333C16.4963 18.3333 17.1322 18.0699 17.6011 17.6011C18.0699 17.1323 18.3333 16.4964 18.3333 15.8333V5.83333C18.3333 5.17029 18.0699 4.53441 17.6011 4.06556C17.1322 3.59672 16.4963 3.33333 15.8333 3.33333V3.33333ZM16.6666 15.8333C16.6666 16.0543 16.5788 16.2663 16.4225 16.4226C16.2663 16.5789 16.0543 16.6667 15.8333 16.6667H4.16663C3.94561 16.6667 3.73365 16.5789 3.57737 16.4226C3.42109 16.2663 3.33329 16.0543 3.33329 15.8333V10H16.6666V15.8333ZM16.6666 8.33333H3.33329V5.83333C3.33329 5.61232 3.42109 5.40036 3.57737 5.24408C3.73365 5.0878 3.94561 5 4.16663 5H5.83329V5.83333C5.83329 6.05434 5.92109 6.26631 6.07737 6.42259C6.23365 6.57887 6.44561 6.66666 6.66663 6.66666C6.88764 6.66666 7.0996 6.57887 7.25588 6.42259C7.41216 6.26631 7.49996 6.05434 7.49996 5.83333V5H12.5V5.83333C12.5 6.05434 12.5878 6.26631 12.744 6.42259C12.9003 6.57887 13.1123 6.66666 13.3333 6.66666C13.5543 6.66666 13.7663 6.57887 13.9225 6.42259C14.0788 6.26631 14.1666 6.05434 14.1666 5.83333V5H15.8333C16.0543 5 16.2663 5.0878 16.4225 5.24408C16.5788 5.40036 16.6666 5.61232 16.6666 5.83333V8.33333Z" fill="#477DB3"/>
</svg>
